. 
  
http://www.torrentday.com   -    Your Key To The Scene.

Now TvTeam with [No-RAR] Releases.

(((((((((((((= Enjoy No RAR releases =))))))))))))))))))))

...................................NFO:....................................

.
                                                     
                                                   
                                                         
                                                          
                                                           
                                                          
                                                          
                                                          
                                                           
                                                         
                                                          
                                                        
                                                      
                                     
                                                 
                                                   
                                             
                                              
                                                     
                                                      
                                                      
                                                      
                                                    
                                                     
                                                   
                                                     
                                                     
                                                      
                                                     
                                                      
                                                    
                 ARTiCHOKE                        
                                                
                      
                                                        
                                                      
                                                      
                                               
                                          
                                                   
                                            
                                                    
                                                       
                                                        
                                                      
                                                
                                                        
                                                 
                                              
                                                  
                                                
                                                  
                                        

      
                                
      SPRiNTER proudly presents...     
                                
      
 
 Deceitful.Storm.2008.DVDRip.XViD-SPRiNTER-needs.nfo  http://www.imdb.com/title/tt1281834/
 Subtitles: N/A

 Date: 2010.04

 Director: Shanda Davis
 Genre: Drama

 Cast

	Marcus Freeman	 ...	Dr. Freeman
	LaShondria Greenwood	 ...	Pam
	Eric Harvey	 ...	Larry
	Felicia Kearney	 ...	Candy
	Kayrn Lewis	 ...	Rena
	Joseph Pickens	 ...	Mark
	Stefan Sims	 ...	David
	Treshetta Sims	 ...	David's Mother

      
                 
      Release notes     
                 
      

 Enjoy!


      
           
     Greetings    
           
      


NTX aAF FiCO HNR CiNEFiLE AEN HUMANiSM MOViERUSH


      
           
      Details     
           
      

Format                           : AVI
Format/Info                      : Audio Video Interleave
File size                        : 701 MiB
Duration                         : 1h 56mn
Overall bit rate                 : 844 Kbps
Writing application              : Nandub v1.0rc2
Writing library                  : Nandub build 1852/release

Video
ID                               : 0
Format                           : MPEG-4 Visual
Format profile                   : Advanced Simple@L5
Format settings, BVOP            : No
Format settings, QPel            : No
Format settings, GMC             : No warppoints
Format settings, Matrix          : Default (H.263)
Codec ID                         : XVID
Codec ID/Hint                    : XviD
Duration                         : 1h 56mn
Bit rate                         : 713 Kbps
Width                            : 512 pixels
Height                           : 384 pixels
Display aspect ratio             : 4:3
Frame rate                       : 23.976 fps
Resolution                       : 8 bits
Colorimetry                      : 4:2:0
Scan type                        : Progressive
Bits/(Pixel*Frame)               : 0.151
Stream size                      : 592 MiB (84%)
Writing library                  : XviD 1.1.2 (UTC 2006-11-01)

Audio
ID                               : 1
Format                           : MPEG Audio
Format version                   : Version 1
Format profile                   : Layer 3
Codec ID                         : 55
Codec ID/Hint                    : MP3
Duration                         : 1h 56mn
Bit rate mode                    : Variable
Bit rate                         : 118 Kbps
Minimum bit rate                 : 40.0 Kbps
Channel(s)                       : 2 channels
Sampling rate                    : 48.0 KHz
Stream size                      : 98.0 MiB (14%)
Alignment                        : Aligned on interleaves
Interleave, duration             : 24 ms (0.58 video frame)
Interleave, preload duration     : 182 ms
Writing library                  : LAME3.95 
Encoding settings                : -m s -V 6 -q 3 -lowpass 16 --vbr-old -b 40